<svg width="234" height="54" viewBox="0 0 234 54" fill="none" xmlns="http://www.w3.org/2000/svg">
<g filter="url(#filter0_di_602_142)">
<path d="M17.6016 35.48C14.4976 35.48 11.6176 34.968 8.96156 33.944C6.33756 32.888 4.20956 31.432 2.57756 29.576C2.25756 29.16 2.09756 28.76 2.09756 28.376C2.09756 27.768 2.36956 27.24 2.91356 26.792C3.26556 26.504 3.63356 26.36 4.01756 26.36C4.59356 26.36 5.18556 26.664 5.79356 27.272C7.16956 28.68 8.86556 29.784 10.8816 30.584C12.9296 31.352 15.1696 31.736 17.6016 31.736C20.1616 31.736 22.1456 31.272 23.5536 30.344C24.9936 29.384 25.7136 28.056 25.7136 26.36C25.7136 24.792 25.0096 23.528 23.6016 22.568C22.1936 21.576 19.7776 20.712 16.3536 19.976C11.6496 18.92 8.25756 17.592 6.17756 15.992C4.09756 14.392 3.05756 12.28 3.05756 9.656C3.05756 7.896 3.58556 6.36 4.64156 5.048C5.69756 3.736 7.20156 2.728 9.15356 2.024C11.1056 1.288 13.3776 0.919998 15.9696 0.919998C18.9136 0.919998 21.5536 1.432 23.8896 2.456C26.2256 3.448 27.9216 4.808 28.9776 6.536C29.2336 6.92 29.3616 7.32 29.3616 7.736C29.3616 8.376 29.0576 8.904 28.4496 9.32C28.1616 9.512 27.8256 9.608 27.4416 9.608C27.0896 9.608 26.7376 9.528 26.3856 9.368C26.0336 9.176 25.7456 8.936 25.5216 8.648C24.5936 7.368 23.2976 6.392 21.6336 5.72C20.0016 5.016 18.1136 4.664 15.9696 4.664C13.2496 4.664 11.1696 5.096 9.72956 5.96C8.32156 6.792 7.61756 8.024 7.61756 9.656C7.61756 10.648 7.90556 11.512 8.48156 12.248C9.05756 12.952 10.0016 13.592 11.3136 14.168C12.6256 14.712 14.4336 15.256 16.7376 15.8C21.5696 16.92 25.0416 18.312 27.1536 19.976C29.2656 21.608 30.3216 23.736 30.3216 26.36C30.3216 28.216 29.7936 29.832 28.7376 31.208C27.7136 32.552 26.2416 33.608 24.3216 34.376C22.4016 35.112 20.1616 35.48 17.6016 35.48ZM48.0039 35.48C43.8439 35.48 40.5959 34.408 38.2599 32.264C35.9559 30.088 34.8039 27.08 34.8039 23.24C34.8039 19.432 35.9399 16.44 38.2119 14.264C40.5159 12.088 43.6999 11 47.7639 11C50.2599 11 52.4679 11.4 54.3879 12.2C56.3399 12.968 57.8599 14.072 58.9479 15.512C60.0359 16.92 60.5799 18.536 60.5799 20.36C60.5799 21.768 60.1639 22.856 59.3319 23.624C58.5319 24.392 57.3799 24.776 55.8759 24.776H39.2199C39.2199 27.016 39.9719 28.76 41.4759 30.008C43.0119 31.224 45.1879 31.832 48.0039 31.832C49.6679 31.832 51.1079 31.656 52.3239 31.304C53.5719 30.952 54.7399 30.376 55.8279 29.576C56.6279 29.032 57.2359 28.76 57.6519 28.76C58.0359 28.76 58.3879 28.92 58.7079 29.24C59.1559 29.688 59.3799 30.152 59.3799 30.632C59.3799 31.112 59.1559 31.56 58.7079 31.976C56.0839 34.312 52.5159 35.48 48.0039 35.48ZM54.5319 21.416C55.1079 21.416 55.5239 21.304 55.7799 21.08C56.0359 20.856 56.1639 20.456 56.1639 19.88C56.1639 18.344 55.3799 17.096 53.8119 16.136C52.2759 15.144 50.2599 14.648 47.7639 14.648C45.1719 14.648 43.1079 15.256 41.5719 16.472C40.0679 17.688 39.3159 19.336 39.3159 21.416H54.5319ZM67.6918 35.48C66.9878 35.48 66.4438 35.288 66.0598 34.904C65.7078 34.488 65.5318 33.928 65.5318 33.224V13.256C65.5318 11.752 66.2518 11 67.6918 11C68.3638 11 68.8918 11.208 69.2758 11.624C69.6598 12.008 69.8518 12.552 69.8518 13.256V15.608C72.2198 12.536 75.4358 11 79.4998 11C82.5718 11 84.9398 11.896 86.6038 13.688C88.2998 15.448 89.1478 17.944 89.1478 21.176V33.224C89.1478 33.928 88.9398 34.488 88.5238 34.904C88.1398 35.288 87.6118 35.48 86.9398 35.48C86.2358 35.48 85.6918 35.288 85.3078 34.904C84.9238 34.488 84.7318 33.928 84.7318 33.224V21.176C84.7318 19.032 84.2198 17.416 83.1958 16.328C82.2038 15.24 80.7158 14.696 78.7318 14.696C76.0438 14.696 73.8998 15.496 72.2998 17.096C70.7318 18.664 69.9478 20.792 69.9478 23.48V33.224C69.9478 33.928 69.7398 34.488 69.3238 34.904C68.9398 35.288 68.3958 35.48 67.6918 35.48ZM105.578 35.48C103.114 35.48 100.922 35.064 99.0024 34.232C97.0824 33.368 95.5624 32.216 94.4424 30.776C94.1224 30.36 93.9624 29.944 93.9624 29.528C93.9624 28.824 94.2984 28.296 94.9704 27.944C95.2584 27.784 95.5624 27.704 95.8824 27.704C96.4264 27.704 96.9864 27.992 97.5624 28.568C98.6184 29.688 99.7864 30.504 101.066 31.016C102.346 31.528 103.818 31.784 105.482 31.784C107.018 31.784 108.266 31.544 109.226 31.064C110.218 30.552 110.714 29.864 110.714 29C110.714 28.36 110.522 27.832 110.138 27.416C109.786 27 109.162 26.6 108.266 26.216C107.37 25.832 105.962 25.32 104.042 24.68C100.81 23.656 98.5224 22.6 97.1784 21.512C95.8664 20.424 95.2104 19 95.2104 17.24C95.2104 15.352 96.0264 13.848 97.6584 12.728C99.3224 11.576 101.562 11 104.378 11C106.458 11 108.378 11.352 110.138 12.056C111.93 12.728 113.258 13.656 114.122 14.84C114.41 15.224 114.554 15.624 114.554 16.04C114.554 16.584 114.266 17.048 113.69 17.432C113.274 17.688 112.858 17.816 112.442 17.816C111.802 17.816 111.194 17.528 110.618 16.952C109.85 16.184 108.954 15.624 107.93 15.272C106.938 14.888 105.738 14.696 104.33 14.696C102.826 14.696 101.674 14.92 100.874 15.368C100.106 15.816 99.7224 16.456 99.7224 17.288C99.7224 17.928 99.8984 18.44 100.25 18.824C100.602 19.208 101.21 19.576 102.074 19.928C102.938 20.28 104.378 20.776 106.394 21.416C108.634 22.12 110.378 22.824 111.626 23.528C112.906 24.232 113.818 25.016 114.362 25.88C114.906 26.744 115.178 27.784 115.178 29C115.178 30.952 114.298 32.52 112.538 33.704C110.81 34.888 108.49 35.48 105.578 35.48ZM123.211 6.632C122.379 6.632 121.675 6.376 121.099 5.864C120.523 5.32 120.235 4.648 120.235 3.848C120.235 3.048 120.523 2.376 121.099 1.832C121.675 1.288 122.379 1.016 123.211 1.016C124.107 1.016 124.843 1.288 125.419 1.832C126.027 2.376 126.331 3.048 126.331 3.848C126.331 4.616 126.027 5.272 125.419 5.816C124.843 6.36 124.107 6.632 123.211 6.632ZM123.259 35.48C122.555 35.48 122.011 35.288 121.627 34.904C121.243 34.488 121.051 33.928 121.051 33.224V13.256C121.051 12.552 121.243 12.008 121.627 11.624C122.011 11.208 122.555 11 123.259 11C123.963 11 124.507 11.208 124.891 11.624C125.275 12.008 125.467 12.552 125.467 13.256V33.224C125.467 33.928 125.275 34.488 124.891 34.904C124.507 35.288 123.963 35.48 123.259 35.48ZM134.536 35.48C133.832 35.48 133.288 35.288 132.904 34.904C132.552 34.488 132.376 33.928 132.376 33.224V13.256C132.376 11.752 133.096 11 134.536 11C135.208 11 135.736 11.208 136.12 11.624C136.504 12.008 136.696 12.552 136.696 13.256V15.608C139.064 12.536 142.28 11 146.344 11C149.416 11 151.784 11.896 153.448 13.688C155.144 15.448 155.992 17.944 155.992 21.176V33.224C155.992 33.928 155.784 34.488 155.368 34.904C154.984 35.288 154.456 35.48 153.784 35.48C153.08 35.48 152.536 35.288 152.152 34.904C151.768 34.488 151.576 33.928 151.576 33.224V21.176C151.576 19.032 151.064 17.416 150.04 16.328C149.048 15.24 147.56 14.696 145.576 14.696C142.888 14.696 140.744 15.496 139.144 17.096C137.576 18.664 136.792 20.792 136.792 23.48V33.224C136.792 33.928 136.584 34.488 136.168 34.904C135.784 35.288 135.24 35.48 134.536 35.48ZM174.63 47.048C172.262 47.048 170.102 46.696 168.15 45.992C166.23 45.288 164.678 44.296 163.494 43.016C163.174 42.664 163.014 42.28 163.014 41.864C163.014 41.32 163.318 40.792 163.926 40.28C164.214 40.024 164.582 39.896 165.03 39.896C165.702 39.896 166.342 40.216 166.95 40.856C167.718 41.656 168.71 42.28 169.926 42.728C171.174 43.208 172.63 43.448 174.294 43.448C177.206 43.448 179.446 42.696 181.014 41.192C182.582 39.688 183.35 37.544 183.318 34.76V31.112C182.23 32.488 180.854 33.592 179.19 34.424C177.526 35.224 175.574 35.624 173.334 35.624C169.302 35.624 166.182 34.552 163.974 32.408C161.766 30.232 160.662 27.288 160.662 23.576C160.662 19.768 161.782 16.728 164.022 14.456C166.262 12.152 169.462 11 173.622 11C175.606 11 177.414 11.4 179.046 12.2C180.678 13 182.102 14.136 183.318 15.608V13.16C183.318 12.52 183.526 12.008 183.942 11.624C184.39 11.208 184.934 11 185.574 11C186.246 11 186.774 11.192 187.158 11.576C187.574 11.96 187.782 12.488 187.782 13.16V34.76C187.782 37.224 187.238 39.384 186.15 41.24C185.062 43.096 183.526 44.52 181.542 45.512C179.558 46.536 177.254 47.048 174.63 47.048ZM173.958 31.88C175.654 31.88 177.206 31.56 178.614 30.92C180.054 30.28 181.19 29.32 182.022 28.04C182.886 26.76 183.318 25.192 183.318 23.336C183.318 20.776 182.502 18.696 180.87 17.096C179.238 15.496 176.982 14.696 174.102 14.696C171.254 14.696 169.046 15.48 167.478 17.048C165.91 18.584 165.126 20.76 165.126 23.576C165.126 26.136 165.878 28.168 167.382 29.672C168.918 31.144 171.11 31.88 173.958 31.88ZM196.282 35.48C195.578 35.48 195.018 35.288 194.602 34.904C194.218 34.488 194.026 33.928 194.026 33.224V7.592C194.026 5.672 194.602 4.168 195.754 3.08C196.906 1.96 198.506 1.4 200.554 1.4H215.434C216.938 1.4 217.69 2.024 217.69 3.272C217.69 3.816 217.482 4.248 217.066 4.568C216.682 4.888 216.138 5.048 215.434 5.048H200.938C200.202 5.048 199.61 5.288 199.162 5.768C198.746 6.248 198.538 6.888 198.538 7.688V16.472H211.786C213.29 16.472 214.042 17.096 214.042 18.344C214.042 18.92 213.834 19.368 213.418 19.688C213.034 20.008 212.49 20.168 211.786 20.168H198.538V33.224C198.538 33.928 198.33 34.488 197.914 34.904C197.53 35.288 196.986 35.48 196.282 35.48ZM227.16 35.48C226.488 35.48 225.944 35.288 225.528 34.904C225.144 34.488 224.952 33.928 224.952 33.224V3.176C224.952 2.472 225.144 1.928 225.528 1.544C225.944 1.128 226.488 0.919998 227.16 0.919998C227.864 0.919998 228.424 1.128 228.84 1.544C229.256 1.928 229.464 2.472 229.464 3.176V33.224C229.464 33.928 229.256 34.488 228.84 34.904C228.424 35.288 227.864 35.48 227.16 35.48Z" fill="url(#paint0_linear_602_142)"/>
</g>
<defs>
<filter id="filter0_di_602_142" x="0.0975647" y="0.919998" width="233.366" height="52.128" filterUnits="userSpaceOnUse" color-interpolation-filters="sRGB">
<feFlood flood-opacity="0" result="BackgroundImageFix"/>
<feColorMatrix in="SourceAlpha" type="matrix" values="0 0 0 0 0 0 0 0 0 0 0 0 0 0 0 0 0 0 127 0" result="hardAlpha"/>
<feOffset dx="1" dy="3"/>
<feGaussianBlur stdDeviation="1.5"/>
<feComposite in2="hardAlpha" operator="out"/>
<feColorMatrix type="matrix" values="0 0 0 0 0 0 0 0 0 0 0 0 0 0 0 0 0 0 0.25 0"/>
<feBlend mode="normal" in2="BackgroundImageFix" result="effect1_dropShadow_602_142"/>
<feBlend mode="normal" in="SourceGraphic" in2="effect1_dropShadow_602_142" result="shape"/>
<feColorMatrix in="SourceAlpha" type="matrix" values="0 0 0 0 0 0 0 0 0 0 0 0 0 0 0 0 0 0 127 0" result="hardAlpha"/>
<feOffset dy="4"/>
<feGaussianBlur stdDeviation="2"/>
<feComposite in2="hardAlpha" operator="arithmetic" k2="-1" k3="1"/>
<feColorMatrix type="matrix" values="0 0 0 0 0 0 0 0 0 0 0 0 0 0 0 0 0 0 0.25 0"/>
<feBlend mode="normal" in2="shape" result="effect2_innerShadow_602_142"/>
</filter>
<linearGradient id="paint0_linear_602_142" x1="117" y1="-15" x2="117" y2="50" gradientUnits="userSpaceOnUse">
<stop offset="0.9999" stop-color="#77ECD8"/>
<stop offset="1" stop-color="#224962"/>
</linearGradient>
</defs>
</svg>
