<svg width="151" height="32" viewBox="0 0 151 32" fill="none" xmlns="http://www.w3.org/2000/svg">
<g filter="url(#filter0_di_719_102)">
<path d="M13.492 25.32C11.2093 25.32 9.21467 24.8507 7.508 23.912C5.80133 22.9733 4.47867 21.64 3.54 19.912C2.62267 18.184 2.164 16.1573 2.164 13.832C2.164 11.5067 2.62267 9.48 3.54 7.752C4.47867 6.00267 5.79067 4.65867 7.476 3.72C9.18267 2.76 11.1667 2.28 13.428 2.28C15.3267 2.28 17.0653 2.6 18.644 3.24C20.244 3.88 21.4707 4.75467 22.324 5.864C22.516 6.12 22.612 6.39733 22.612 6.696C22.612 7.08 22.42 7.42133 22.036 7.72C21.8227 7.86933 21.5773 7.944 21.3 7.944C21.0653 7.944 20.8307 7.89067 20.596 7.784C20.3613 7.67733 20.1693 7.53867 20.02 7.368C18.612 5.64 16.4147 4.776 13.428 4.776C10.8893 4.776 8.884 5.58667 7.412 7.208C5.94 8.808 5.204 11.016 5.204 13.832C5.204 16.6267 5.94 18.824 7.412 20.424C8.884 22.024 10.9107 22.824 13.492 22.824C15.028 22.824 16.3827 22.6 17.556 22.152C18.7293 21.704 19.6893 21.064 20.436 20.232C20.8627 19.784 21.2893 19.56 21.716 19.56C21.9933 19.56 22.2493 19.656 22.484 19.848C22.8467 20.168 23.028 20.52 23.028 20.904C23.028 21.1813 22.9213 21.4587 22.708 21.736C21.8333 22.8453 20.5747 23.72 18.932 24.36C17.2893 25 15.476 25.32 13.492 25.32ZM32.1258 25.32C30.0564 25.32 28.4138 24.8507 27.1978 23.912C26.0031 22.9733 25.4058 21.704 25.4058 20.104C25.4058 18.504 26.0351 17.2347 27.2938 16.296C28.5738 15.3573 30.3124 14.888 32.5098 14.888C33.6618 14.888 34.6858 15.0373 35.5818 15.336C36.4991 15.6347 37.2351 16.04 37.7898 16.552V14.952C37.7898 13.8 37.4164 12.9253 36.6698 12.328C35.9444 11.7093 34.8671 11.4 33.4378 11.4C31.5391 11.4 29.8964 11.8373 28.5098 12.712C28.1044 12.9467 27.7524 13.064 27.4538 13.064C27.1764 13.064 26.8991 12.9467 26.6218 12.712C26.3871 12.4773 26.2698 12.2 26.2698 11.88C26.2698 11.5173 26.4511 11.1867 26.8138 10.888C27.5818 10.312 28.5524 9.85333 29.7258 9.512C30.8991 9.17067 32.1258 9 33.4058 9C35.7311 9 37.5444 9.53333 38.8458 10.6C40.1471 11.6453 40.7978 13.1173 40.7978 15.016V23.88C40.7978 24.3493 40.6698 24.712 40.4138 24.968C40.1791 25.2027 39.8271 25.32 39.3578 25.32C38.8884 25.32 38.5258 25.2027 38.2698 24.968C38.0138 24.712 37.8858 24.3707 37.8858 23.944V23.048C36.6058 24.5627 34.6858 25.32 32.1258 25.32ZM32.6378 23.048C34.1951 23.048 35.4431 22.7707 36.3818 22.216C37.3418 21.64 37.8218 20.8933 37.8218 19.976C37.8218 19.08 37.3631 18.3867 36.4458 17.896C35.5498 17.384 34.3018 17.128 32.7018 17.128C31.3151 17.128 30.2484 17.384 29.5018 17.896C28.7551 18.408 28.3818 19.144 28.3818 20.104C28.3818 21.0427 28.7444 21.768 29.4698 22.28C30.2164 22.792 31.2724 23.048 32.6378 23.048ZM52.481 25.32C50.753 25.32 49.249 25 47.969 24.36C46.689 23.6987 45.697 22.76 44.993 21.544C44.289 20.328 43.937 18.888 43.937 17.224C43.937 15.624 44.2677 14.2053 44.929 12.968C45.6117 11.7093 46.6037 10.7387 47.905 10.056C49.2063 9.352 50.753 9 52.545 9C53.9957 9 55.2223 9.26667 56.225 9.8C57.249 10.312 58.177 11.048 59.009 12.008L59.041 2.216C59.041 1.74667 59.169 1.384 59.425 1.128C59.7023 0.850665 60.0757 0.711998 60.545 0.711998C60.993 0.711998 61.345 0.850665 61.601 1.128C61.857 1.384 61.985 1.74667 61.985 2.216V23.816C61.985 24.2853 61.857 24.6587 61.601 24.936C61.345 25.192 60.993 25.32 60.545 25.32C60.0757 25.32 59.7023 25.192 59.425 24.936C59.169 24.6587 59.041 24.2853 59.041 23.816V22.248C57.5477 24.296 55.361 25.32 52.481 25.32ZM52.801 22.856C54.7423 22.856 56.2677 22.3547 57.377 21.352C58.4863 20.328 59.041 18.9307 59.041 17.16C59.041 15.4107 58.4543 14.024 57.281 13C56.1077 11.976 54.625 11.464 52.833 11.464C50.977 11.464 49.5263 11.9867 48.481 13.032C47.4357 14.0773 46.913 15.4747 46.913 17.224C46.913 19.0587 47.425 20.456 48.449 21.416C49.4943 22.376 50.945 22.856 52.801 22.856ZM72.0008 25.32C69.9314 25.32 68.2888 24.8507 67.0728 23.912C65.8781 22.9733 65.2808 21.704 65.2808 20.104C65.2808 18.504 65.9101 17.2347 67.1688 16.296C68.4488 15.3573 70.1874 14.888 72.3848 14.888C73.5368 14.888 74.5608 15.0373 75.4568 15.336C76.3741 15.6347 77.1101 16.04 77.6648 16.552V14.952C77.6648 13.8 77.2914 12.9253 76.5448 12.328C75.8194 11.7093 74.7421 11.4 73.3128 11.4C71.4141 11.4 69.7714 11.8373 68.3848 12.712C67.9794 12.9467 67.6274 13.064 67.3288 13.064C67.0514 13.064 66.7741 12.9467 66.4968 12.712C66.2621 12.4773 66.1448 12.2 66.1448 11.88C66.1448 11.5173 66.3261 11.1867 66.6888 10.888C67.4568 10.312 68.4274 9.85333 69.6008 9.512C70.7741 9.17067 72.0008 9 73.2808 9C75.6061 9 77.4194 9.53333 78.7208 10.6C80.0221 11.6453 80.6728 13.1173 80.6728 15.016V23.88C80.6728 24.3493 80.5448 24.712 80.2888 24.968C80.0541 25.2027 79.7021 25.32 79.2328 25.32C78.7634 25.32 78.4008 25.2027 78.1448 24.968C77.8888 24.712 77.7608 24.3707 77.7608 23.944V23.048C76.4808 24.5627 74.5608 25.32 72.0008 25.32ZM72.5128 23.048C74.0701 23.048 75.3181 22.7707 76.2568 22.216C77.2168 21.64 77.6968 20.8933 77.6968 19.976C77.6968 19.08 77.2381 18.3867 76.3208 17.896C75.4248 17.384 74.1768 17.128 72.5768 17.128C71.1901 17.128 70.1234 17.384 69.3768 17.896C68.6301 18.408 68.2568 19.144 68.2568 20.104C68.2568 21.0427 68.6194 21.768 69.3448 22.28C70.0914 22.792 71.1474 23.048 72.5128 23.048ZM91.62 25.32C89.9773 25.32 88.516 25.0427 87.236 24.488C85.956 23.912 84.9427 23.144 84.196 22.184C83.9827 21.9067 83.876 21.6293 83.876 21.352C83.876 20.8827 84.1 20.5307 84.548 20.296C84.74 20.1893 84.9427 20.136 85.156 20.136C85.5187 20.136 85.892 20.328 86.276 20.712C86.98 21.4587 87.7587 22.0027 88.612 22.344C89.4653 22.6853 90.4467 22.856 91.556 22.856C92.58 22.856 93.412 22.696 94.052 22.376C94.7133 22.0347 95.044 21.576 95.044 21C95.044 20.5733 94.916 20.2213 94.66 19.944C94.4253 19.6667 94.0093 19.4 93.412 19.144C92.8147 18.888 91.876 18.5467 90.596 18.12C88.4413 17.4373 86.916 16.7333 86.02 16.008C85.1453 15.2827 84.708 14.3333 84.708 13.16C84.708 11.9013 85.252 10.8987 86.34 10.152C87.4493 9.384 88.9427 9 90.82 9C92.2067 9 93.4867 9.23467 94.66 9.704C95.8547 10.152 96.74 10.7707 97.316 11.56C97.508 11.816 97.604 12.0827 97.604 12.36C97.604 12.7227 97.412 13.032 97.028 13.288C96.7507 13.4587 96.4733 13.544 96.196 13.544C95.7693 13.544 95.364 13.352 94.98 12.968C94.468 12.456 93.8707 12.0827 93.188 11.848C92.5267 11.592 91.7267 11.464 90.788 11.464C89.7853 11.464 89.0173 11.6133 88.484 11.912C87.972 12.2107 87.716 12.6373 87.716 13.192C87.716 13.6187 87.8333 13.96 88.068 14.216C88.3027 14.472 88.708 14.7173 89.284 14.952C89.86 15.1867 90.82 15.5173 92.164 15.944C93.6573 16.4133 94.82 16.8827 95.652 17.352C96.5053 17.8213 97.1133 18.344 97.476 18.92C97.8387 19.496 98.02 20.1893 98.02 21C98.02 22.3013 97.4333 23.3467 96.26 24.136C95.108 24.9253 93.5613 25.32 91.62 25.32ZM112.847 21.512C113.124 21.7467 113.263 22.0133 113.263 22.312C113.263 22.568 113.146 22.8773 112.911 23.24C112.463 23.88 111.834 24.392 111.023 24.776C110.212 25.1387 109.348 25.32 108.431 25.32C106.916 25.32 105.722 24.8933 104.847 24.04C103.994 23.1653 103.567 21.9707 103.567 20.456V11.72H101.967C101.476 11.72 101.092 11.6133 100.815 11.4C100.559 11.1867 100.431 10.888 100.431 10.504C100.431 10.1413 100.559 9.85333 100.815 9.64C101.092 9.42667 101.476 9.32 101.967 9.32H103.567V4.072C103.567 3.60266 103.695 3.24 103.951 2.984C104.228 2.70667 104.602 2.568 105.071 2.568C105.54 2.568 105.892 2.696 106.127 2.952C106.383 3.208 106.511 3.58133 106.511 4.072V9.32H110.447C110.938 9.32 111.311 9.42667 111.567 9.64C111.844 9.832 111.983 10.12 111.983 10.504C111.983 10.888 111.844 11.1867 111.567 11.4C111.311 11.6133 110.938 11.72 110.447 11.72H106.511V20.712C106.511 21.3947 106.692 21.928 107.055 22.312C107.418 22.6747 107.93 22.856 108.591 22.856C109.06 22.856 109.476 22.7813 109.839 22.632C110.202 22.4613 110.564 22.184 110.927 21.8C111.332 21.3947 111.706 21.192 112.047 21.192C112.346 21.192 112.612 21.2987 112.847 21.512ZM117.769 25.32C117.299 25.32 116.937 25.192 116.681 24.936C116.446 24.6587 116.329 24.2853 116.329 23.816V10.504C116.329 9.50133 116.809 9 117.769 9C118.217 9 118.569 9.13867 118.825 9.416C119.081 9.672 119.209 10.0347 119.209 10.504V12.136C120.617 10.2587 122.526 9.32 124.937 9.32H125.705C126.217 9.32 126.611 9.42667 126.889 9.64C127.166 9.85333 127.305 10.1627 127.305 10.568C127.305 10.952 127.155 11.2507 126.857 11.464C126.579 11.6773 126.195 11.784 125.705 11.784H124.745C123.059 11.784 121.726 12.2853 120.745 13.288C119.763 14.2693 119.273 15.6133 119.273 17.32V23.816C119.273 24.2853 119.134 24.6587 118.857 24.936C118.601 25.192 118.238 25.32 117.769 25.32ZM137.149 25.32C135.293 25.32 133.683 24.9573 132.317 24.232C130.952 23.5067 129.907 22.5253 129.181 21.288C128.477 20.0507 128.125 18.6747 128.125 17.16C128.125 15.6453 128.477 14.2693 129.181 13.032C129.907 11.7947 130.952 10.8133 132.317 10.088C133.683 9.36267 135.293 9 137.149 9C139.005 9 140.605 9.36267 141.949 10.088C143.315 10.8133 144.349 11.7947 145.053 13.032C145.779 14.2693 146.141 15.6453 146.141 17.16C146.141 18.6747 145.779 20.0507 145.053 21.288C144.349 22.5253 143.315 23.5067 141.949 24.232C140.605 24.9573 139.005 25.32 137.149 25.32ZM137.149 22.856C138.984 22.856 140.445 22.3547 141.533 21.352C142.621 20.3493 143.165 18.952 143.165 17.16C143.165 15.368 142.621 13.9707 141.533 12.968C140.445 11.9653 138.984 11.464 137.149 11.464C135.315 11.464 133.843 11.9653 132.733 12.968C131.645 13.9707 131.101 15.368 131.101 17.16C131.101 18.952 131.645 20.3493 132.733 21.352C133.843 22.3547 135.315 22.856 137.149 22.856Z" fill="url(#paint0_linear_719_102)"/>
</g>
<defs>
<filter id="filter0_di_719_102" x="0.164062" y="0.711998" width="149.977" height="30.608" filterUnits="userSpaceOnUse" color-interpolation-filters="sRGB">
<feFlood flood-opacity="0" result="BackgroundImageFix"/>
<feColorMatrix in="SourceAlpha" type="matrix" values="0 0 0 0 0 0 0 0 0 0 0 0 0 0 0 0 0 0 127 0" result="hardAlpha"/>
<feOffset dx="1" dy="3"/>
<feGaussianBlur stdDeviation="1.5"/>
<feComposite in2="hardAlpha" operator="out"/>
<feColorMatrix type="matrix" values="0 0 0 0 0 0 0 0 0 0 0 0 0 0 0 0 0 0 0.25 0"/>
<feBlend mode="normal" in2="BackgroundImageFix" result="effect1_dropShadow_719_102"/>
<feBlend mode="normal" in="SourceGraphic" in2="effect1_dropShadow_719_102" result="shape"/>
<feColorMatrix in="SourceAlpha" type="matrix" values="0 0 0 0 0 0 0 0 0 0 0 0 0 0 0 0 0 0 127 0" result="hardAlpha"/>
<feOffset dy="4"/>
<feGaussianBlur stdDeviation="2"/>
<feComposite in2="hardAlpha" operator="arithmetic" k2="-1" k3="1"/>
<feColorMatrix type="matrix" values="0 0 0 0 0 0 0 0 0 0 0 0 0 0 0 0 0 0 0.25 0"/>
<feBlend mode="normal" in2="shape" result="effect2_innerShadow_719_102"/>
</filter>
<linearGradient id="paint0_linear_719_102" x1="74" y1="-25" x2="74" y2="52" gradientUnits="userSpaceOnUse">
<stop offset="0.572115" stop-color="#77ECD8"/>
<stop offset="1" stop-color="#224962"/>
</linearGradient>
</defs>
</svg>
