<svg width="338" height="111" viewBox="0 0 338 111" fill="none" xmlns="http://www.w3.org/2000/svg">
<g filter="url(#filter0_di_718_75)">
<path d="M92.6016 82.48C89.4976 82.48 86.6176 81.968 83.9616 80.944C81.3376 79.888 79.2096 78.432 77.5776 76.576C77.2576 76.16 77.0976 75.76 77.0976 75.376C77.0976 74.768 77.3696 74.24 77.9136 73.792C78.2656 73.504 78.6336 73.36 79.0176 73.36C79.5936 73.36 80.1856 73.664 80.7936 74.272C82.1696 75.68 83.8656 76.784 85.8816 77.584C87.9296 78.352 90.1696 78.736 92.6016 78.736C95.1616 78.736 97.1456 78.272 98.5536 77.344C99.9936 76.384 100.714 75.056 100.714 73.36C100.714 71.792 100.01 70.528 98.6016 69.568C97.1936 68.576 94.7776 67.712 91.3536 66.976C86.6496 65.92 83.2576 64.592 81.1776 62.992C79.0976 61.392 78.0576 59.28 78.0576 56.656C78.0576 54.896 78.5856 53.36 79.6416 52.048C80.6976 50.736 82.2016 49.728 84.1536 49.024C86.1056 48.288 88.3776 47.92 90.9696 47.92C93.9136 47.92 96.5536 48.432 98.8896 49.456C101.226 50.448 102.922 51.808 103.978 53.536C104.234 53.92 104.362 54.32 104.362 54.736C104.362 55.376 104.058 55.904 103.45 56.32C103.162 56.512 102.826 56.608 102.442 56.608C102.09 56.608 101.738 56.528 101.386 56.368C101.034 56.176 100.746 55.936 100.522 55.648C99.5936 54.368 98.2976 53.392 96.6336 52.72C95.0016 52.016 93.1136 51.664 90.9696 51.664C88.2496 51.664 86.1696 52.096 84.7296 52.96C83.3216 53.792 82.6176 55.024 82.6176 56.656C82.6176 57.648 82.9056 58.512 83.4816 59.248C84.0576 59.952 85.0016 60.592 86.3136 61.168C87.6256 61.712 89.4336 62.256 91.7376 62.8C96.5696 63.92 100.042 65.312 102.154 66.976C104.266 68.608 105.322 70.736 105.322 73.36C105.322 75.216 104.794 76.832 103.738 78.208C102.714 79.552 101.242 80.608 99.3216 81.376C97.4016 82.112 95.1616 82.48 92.6016 82.48ZM123.004 82.48C118.844 82.48 115.596 81.408 113.26 79.264C110.956 77.088 109.804 74.08 109.804 70.24C109.804 66.432 110.94 63.44 113.212 61.264C115.516 59.088 118.7 58 122.764 58C125.26 58 127.468 58.4 129.388 59.2C131.34 59.968 132.86 61.072 133.948 62.512C135.036 63.92 135.58 65.536 135.58 67.36C135.58 68.768 135.164 69.856 134.332 70.624C133.532 71.392 132.38 71.776 130.876 71.776H114.22C114.22 74.016 114.972 75.76 116.476 77.008C118.012 78.224 120.188 78.832 123.004 78.832C124.668 78.832 126.108 78.656 127.324 78.304C128.572 77.952 129.74 77.376 130.828 76.576C131.628 76.032 132.236 75.76 132.652 75.76C133.036 75.76 133.388 75.92 133.708 76.24C134.156 76.688 134.38 77.152 134.38 77.632C134.38 78.112 134.156 78.56 133.708 78.976C131.084 81.312 127.516 82.48 123.004 82.48ZM129.532 68.416C130.108 68.416 130.524 68.304 130.78 68.08C131.036 67.856 131.164 67.456 131.164 66.88C131.164 65.344 130.38 64.096 128.812 63.136C127.276 62.144 125.26 61.648 122.764 61.648C120.172 61.648 118.108 62.256 116.572 63.472C115.068 64.688 114.316 66.336 114.316 68.416H129.532ZM142.692 82.48C141.988 82.48 141.444 82.288 141.06 81.904C140.708 81.488 140.532 80.928 140.532 80.224V60.256C140.532 58.752 141.252 58 142.692 58C143.364 58 143.892 58.208 144.276 58.624C144.66 59.008 144.852 59.552 144.852 60.256V62.608C147.22 59.536 150.436 58 154.5 58C157.572 58 159.94 58.896 161.604 60.688C163.3 62.448 164.148 64.944 164.148 68.176V80.224C164.148 80.928 163.94 81.488 163.524 81.904C163.14 82.288 162.612 82.48 161.94 82.48C161.236 82.48 160.692 82.288 160.308 81.904C159.924 81.488 159.732 80.928 159.732 80.224V68.176C159.732 66.032 159.22 64.416 158.196 63.328C157.204 62.24 155.716 61.696 153.732 61.696C151.044 61.696 148.9 62.496 147.3 64.096C145.732 65.664 144.948 67.792 144.948 70.48V80.224C144.948 80.928 144.74 81.488 144.324 81.904C143.94 82.288 143.396 82.48 142.692 82.48ZM180.578 82.48C178.114 82.48 175.922 82.064 174.002 81.232C172.082 80.368 170.562 79.216 169.442 77.776C169.122 77.36 168.962 76.944 168.962 76.528C168.962 75.824 169.298 75.296 169.97 74.944C170.258 74.784 170.562 74.704 170.882 74.704C171.426 74.704 171.986 74.992 172.562 75.568C173.618 76.688 174.786 77.504 176.066 78.016C177.346 78.528 178.818 78.784 180.482 78.784C182.018 78.784 183.266 78.544 184.226 78.064C185.218 77.552 185.714 76.864 185.714 76C185.714 75.36 185.522 74.832 185.138 74.416C184.786 74 184.162 73.6 183.266 73.216C182.37 72.832 180.962 72.32 179.042 71.68C175.81 70.656 173.522 69.6 172.178 68.512C170.866 67.424 170.21 66 170.21 64.24C170.21 62.352 171.026 60.848 172.658 59.728C174.322 58.576 176.562 58 179.378 58C181.458 58 183.378 58.352 185.138 59.056C186.93 59.728 188.258 60.656 189.122 61.84C189.41 62.224 189.554 62.624 189.554 63.04C189.554 63.584 189.266 64.048 188.69 64.432C188.274 64.688 187.858 64.816 187.442 64.816C186.802 64.816 186.194 64.528 185.618 63.952C184.85 63.184 183.954 62.624 182.93 62.272C181.938 61.888 180.738 61.696 179.33 61.696C177.826 61.696 176.674 61.92 175.874 62.368C175.106 62.816 174.722 63.456 174.722 64.288C174.722 64.928 174.898 65.44 175.25 65.824C175.602 66.208 176.21 66.576 177.074 66.928C177.938 67.28 179.378 67.776 181.394 68.416C183.634 69.12 185.378 69.824 186.626 70.528C187.906 71.232 188.818 72.016 189.362 72.88C189.906 73.744 190.178 74.784 190.178 76C190.178 77.952 189.298 79.52 187.538 80.704C185.81 81.888 183.49 82.48 180.578 82.48ZM198.211 53.632C197.379 53.632 196.675 53.376 196.099 52.864C195.523 52.32 195.235 51.648 195.235 50.848C195.235 50.048 195.523 49.376 196.099 48.832C196.675 48.288 197.379 48.016 198.211 48.016C199.107 48.016 199.843 48.288 200.419 48.832C201.027 49.376 201.331 50.048 201.331 50.848C201.331 51.616 201.027 52.272 200.419 52.816C199.843 53.36 199.107 53.632 198.211 53.632ZM198.259 82.48C197.555 82.48 197.011 82.288 196.627 81.904C196.243 81.488 196.051 80.928 196.051 80.224V60.256C196.051 59.552 196.243 59.008 196.627 58.624C197.011 58.208 197.555 58 198.259 58C198.963 58 199.507 58.208 199.891 58.624C200.275 59.008 200.467 59.552 200.467 60.256V80.224C200.467 80.928 200.275 81.488 199.891 81.904C199.507 82.288 198.963 82.48 198.259 82.48ZM209.536 82.48C208.832 82.48 208.288 82.288 207.904 81.904C207.552 81.488 207.376 80.928 207.376 80.224V60.256C207.376 58.752 208.096 58 209.536 58C210.208 58 210.736 58.208 211.12 58.624C211.504 59.008 211.696 59.552 211.696 60.256V62.608C214.064 59.536 217.28 58 221.344 58C224.416 58 226.784 58.896 228.448 60.688C230.144 62.448 230.992 64.944 230.992 68.176V80.224C230.992 80.928 230.784 81.488 230.368 81.904C229.984 82.288 229.456 82.48 228.784 82.48C228.08 82.48 227.536 82.288 227.152 81.904C226.768 81.488 226.576 80.928 226.576 80.224V68.176C226.576 66.032 226.064 64.416 225.04 63.328C224.048 62.24 222.56 61.696 220.576 61.696C217.888 61.696 215.744 62.496 214.144 64.096C212.576 65.664 211.792 67.792 211.792 70.48V80.224C211.792 80.928 211.584 81.488 211.168 81.904C210.784 82.288 210.24 82.48 209.536 82.48ZM249.63 94.048C247.262 94.048 245.102 93.696 243.15 92.992C241.23 92.288 239.678 91.296 238.494 90.016C238.174 89.664 238.014 89.28 238.014 88.864C238.014 88.32 238.318 87.792 238.926 87.28C239.214 87.024 239.582 86.896 240.03 86.896C240.702 86.896 241.342 87.216 241.95 87.856C242.718 88.656 243.71 89.28 244.926 89.728C246.174 90.208 247.63 90.448 249.294 90.448C252.206 90.448 254.446 89.696 256.014 88.192C257.582 86.688 258.35 84.544 258.318 81.76V78.112C257.23 79.488 255.854 80.592 254.19 81.424C252.526 82.224 250.574 82.624 248.334 82.624C244.302 82.624 241.182 81.552 238.974 79.408C236.766 77.232 235.662 74.288 235.662 70.576C235.662 66.768 236.782 63.728 239.022 61.456C241.262 59.152 244.462 58 248.622 58C250.606 58 252.414 58.4 254.046 59.2C255.678 60 257.102 61.136 258.318 62.608V60.16C258.318 59.52 258.526 59.008 258.942 58.624C259.39 58.208 259.934 58 260.574 58C261.246 58 261.774 58.192 262.158 58.576C262.574 58.96 262.782 59.488 262.782 60.16V81.76C262.782 84.224 262.238 86.384 261.15 88.24C260.062 90.096 258.526 91.52 256.542 92.512C254.558 93.536 252.254 94.048 249.63 94.048ZM248.958 78.88C250.654 78.88 252.206 78.56 253.614 77.92C255.054 77.28 256.19 76.32 257.022 75.04C257.886 73.76 258.318 72.192 258.318 70.336C258.318 67.776 257.502 65.696 255.87 64.096C254.238 62.496 251.982 61.696 249.102 61.696C246.254 61.696 244.046 62.48 242.478 64.048C240.91 65.584 240.126 67.76 240.126 70.576C240.126 73.136 240.878 75.168 242.382 76.672C243.918 78.144 246.11 78.88 248.958 78.88ZM271.282 82.48C270.578 82.48 270.018 82.288 269.602 81.904C269.218 81.488 269.026 80.928 269.026 80.224V54.592C269.026 52.672 269.602 51.168 270.754 50.08C271.906 48.96 273.506 48.4 275.554 48.4H290.434C291.938 48.4 292.69 49.024 292.69 50.272C292.69 50.816 292.482 51.248 292.066 51.568C291.682 51.888 291.138 52.048 290.434 52.048H275.938C275.202 52.048 274.61 52.288 274.162 52.768C273.746 53.248 273.538 53.888 273.538 54.688V63.472H286.786C288.29 63.472 289.042 64.096 289.042 65.344C289.042 65.92 288.834 66.368 288.418 66.688C288.034 67.008 287.49 67.168 286.786 67.168H273.538V80.224C273.538 80.928 273.33 81.488 272.914 81.904C272.53 82.288 271.986 82.48 271.282 82.48ZM302.16 82.48C301.488 82.48 300.944 82.288 300.528 81.904C300.144 81.488 299.952 80.928 299.952 80.224V50.176C299.952 49.472 300.144 48.928 300.528 48.544C300.944 48.128 301.488 47.92 302.16 47.92C302.864 47.92 303.424 48.128 303.84 48.544C304.256 48.928 304.464 49.472 304.464 50.176V80.224C304.464 80.928 304.256 81.488 303.84 81.904C303.424 82.288 302.864 82.48 302.16 82.48Z" fill="url(#paint0_linear_718_75)"/>
</g>
<g filter="url(#filter1_i_718_75)">
<path d="M48.6103 82V72.0899C48.6103 70.8951 47.8444 69.765 46.529 69.0184L41.6782 66.2659M41.6782 66.2659L45.8374 53.482M41.6782 66.2659L37.519 64.2992M45.8374 53.482L40.2918 52.4986M45.8374 53.482L51.5012 59.9096C52.3106 60.8283 53.6186 61.4694 55.1162 61.682L59.7016 62.3324M37.519 64.2992L40.2918 52.4986M37.519 64.2992L31.9733 82M40.2918 52.4986L32.266 55.345C30.3872 56.0113 29.2005 57.3733 29.2005 58.8633V62.3324M49.9967 45.615C49.9967 46.7012 48.7553 47.5818 47.2239 47.5818C45.6924 47.5818 44.451 46.7012 44.451 45.615C44.451 44.5288 45.6924 43.6482 47.2239 43.6482C48.7553 43.6482 49.9967 44.5288 49.9967 45.615Z" stroke="#224962" stroke-width="5.5" stroke-linecap="round" stroke-linejoin="round"/>
</g>
<g filter="url(#filter2_i_718_75)">
<path fill-rule="evenodd" clip-rule="evenodd" d="M17.664 20.4316C34.1839 6.54977 60.9101 6.59141 77.3545 20.5246C78.1769 21.2215 78.1739 22.3496 77.3479 23.0439L75.8531 24.3001C75.0267 24.9921 73.6931 24.99 72.8703 24.2954C58.8883 12.4509 36.1724 12.4155 22.131 24.2163C21.3049 24.9083 19.9709 24.9063 19.1485 24.2117L17.6604 22.9509C16.8407 22.254 16.8436 21.1283 17.667 20.4339L17.664 20.4316ZM26.598 28.0011C38.1604 18.2836 56.8695 18.3127 68.3835 28.0662C69.2063 28.7634 69.2034 29.8912 68.3769 30.5855L66.8826 31.8417C66.0562 32.5386 64.7169 32.5365 63.8941 31.837C54.848 24.1722 40.1511 24.1493 31.0649 31.7859C30.2385 32.4781 28.9049 32.4761 28.0821 31.7812L26.594 30.5204C25.7742 29.8235 25.7772 28.6981 26.6006 28.0034L26.598 28.0011ZM35.5936 35.571C42.2013 30.0154 52.8939 30.0321 59.4721 35.6082C60.2948 36.3051 60.2919 37.4332 59.4654 38.1275L57.9707 39.3837C57.1447 40.078 55.808 40.0759 54.9853 39.379C50.8751 35.8939 44.192 35.8835 40.0606 39.3558C39.2345 40.0478 37.9005 40.0457 37.0781 39.3511L35.59 38.0903C34.7703 37.3934 34.7732 36.2677 35.5966 35.5733L35.5936 35.571Z" fill="url(#paint1_linear_718_75)"/>
</g>
<defs>
<filter id="filter0_di_718_75" x="75.0976" y="47.92" width="233.366" height="52.128" filterUnits="userSpaceOnUse" color-interpolation-filters="sRGB">
<feFlood flood-opacity="0" result="BackgroundImageFix"/>
<feColorMatrix in="SourceAlpha" type="matrix" values="0 0 0 0 0 0 0 0 0 0 0 0 0 0 0 0 0 0 127 0" result="hardAlpha"/>
<feOffset dx="1" dy="3"/>
<feGaussianBlur stdDeviation="1.5"/>
<feComposite in2="hardAlpha" operator="out"/>
<feColorMatrix type="matrix" values="0 0 0 0 0 0 0 0 0 0 0 0 0 0 0 0 0 0 0.25 0"/>
<feBlend mode="normal" in2="BackgroundImageFix" result="effect1_dropShadow_718_75"/>
<feBlend mode="normal" in="SourceGraphic" in2="effect1_dropShadow_718_75" result="shape"/>
<feColorMatrix in="SourceAlpha" type="matrix" values="0 0 0 0 0 0 0 0 0 0 0 0 0 0 0 0 0 0 127 0" result="hardAlpha"/>
<feOffset dy="4"/>
<feGaussianBlur stdDeviation="2"/>
<feComposite in2="hardAlpha" operator="arithmetic" k2="-1" k3="1"/>
<feColorMatrix type="matrix" values="0 0 0 0 0 0 0 0 0 0 0 0 0 0 0 0 0 0 0.25 0"/>
<feBlend mode="normal" in2="shape" result="effect2_innerShadow_718_75"/>
</filter>
<filter id="filter1_i_718_75" x="26.4505" y="40.8982" width="36.0015" height="47.8525" filterUnits="userSpaceOnUse" color-interpolation-filters="sRGB">
<feFlood flood-opacity="0" result="BackgroundImageFix"/>
<feBlend mode="normal" in="SourceGraphic" in2="BackgroundImageFix" result="shape"/>
<feColorMatrix in="SourceAlpha" type="matrix" values="0 0 0 0 0 0 0 0 0 0 0 0 0 0 0 0 0 0 127 0" result="hardAlpha"/>
<feOffset dy="4"/>
<feGaussianBlur stdDeviation="2"/>
<feComposite in2="hardAlpha" operator="arithmetic" k2="-1" k3="1"/>
<feColorMatrix type="matrix" values="0 0 0 0 0 0 0 0 0 0 0 0 0 0 0 0 0 0 0.25 0"/>
<feBlend mode="normal" in2="shape" result="effect1_innerShadow_718_75"/>
</filter>
<filter id="filter2_i_718_75" x="17.0475" y="10.0474" width="60.9218" height="33.8557" filterUnits="userSpaceOnUse" color-interpolation-filters="sRGB">
<feFlood flood-opacity="0" result="BackgroundImageFix"/>
<feBlend mode="normal" in="SourceGraphic" in2="BackgroundImageFix" result="shape"/>
<feColorMatrix in="SourceAlpha" type="matrix" values="0 0 0 0 0 0 0 0 0 0 0 0 0 0 0 0 0 0 127 0" result="hardAlpha"/>
<feOffset dy="4"/>
<feGaussianBlur stdDeviation="2"/>
<feComposite in2="hardAlpha" operator="arithmetic" k2="-1" k3="1"/>
<feColorMatrix type="matrix" values="0 0 0 0 0 0 0 0 0 0 0 0 0 0 0 0 0 0 0.25 0"/>
<feBlend mode="normal" in2="shape" result="effect1_innerShadow_718_75"/>
</filter>
<linearGradient id="paint0_linear_718_75" x1="192" y1="32" x2="192" y2="97" gradientUnits="userSpaceOnUse">
<stop offset="0.9999" stop-color="#77ECD8"/>
<stop offset="1" stop-color="#224962"/>
</linearGradient>
<linearGradient id="paint1_linear_718_75" x1="47.5391" y1="10.0475" x2="47.4926" y2="39.8891" gradientUnits="userSpaceOnUse">
<stop stop-color="#81FFE6"/>
<stop offset="0.86" stop-color="#224962"/>
</linearGradient>
</defs>
</svg>
