<svg width="18" height="18" viewBox="0 0 18 18" fill="none" xmlns="http://www.w3.org/2000/svg">
<path fill-rule="evenodd" clip-rule="evenodd" d="M14.014 14.3228C15.4291 12.9893 16.3125 11.0978 16.3125 9C16.3125 4.96142 13.0386 1.6875 9 1.6875C4.96142 1.6875 1.6875 4.96142 1.6875 9C1.6875 11.0978 2.57089 12.9893 3.98597 14.3228C5.29509 15.5565 7.05925 16.3125 9 16.3125C10.9407 16.3125 12.7049 15.5565 14.014 14.3228ZM4.60884 13.3592C5.63971 12.0733 7.2237 11.25 9 11.25C10.7763 11.25 12.3603 12.0733 13.3912 13.3592C12.2702 14.4883 10.7168 15.1875 9 15.1875C7.28325 15.1875 5.7298 14.4883 4.60884 13.3592ZM11.8125 6.75C11.8125 8.3033 10.5533 9.5625 9 9.5625C7.4467 9.5625 6.1875 8.3033 6.1875 6.75C6.1875 5.1967 7.4467 3.9375 9 3.9375C10.5533 3.9375 11.8125 5.1967 11.8125 6.75Z" fill="#81FFE6" fill-opacity="0.47"/>
</svg>
